<?xml version="1.0" encoding="utf-8"?>
<!-- Generator: Adobe Illustrator 25.0.0, SVG Export Plug-In . SVG Version: 6.00 Build 0)  -->
<svg version="1.1" id="Слой_1" xmlns="http://www.w3.org/2000/svg" xmlns:xlink="http://www.w3.org/1999/xlink" x="0px" y="0px"
	 width="177px" height="52px" viewBox="0 0 177 52" style="enable-background:new 0 0 177 52;" xml:space="preserve">
<style type="text/css">
	.st0{fill:#FFFFFF;}
</style>
<g>
	<path class="st0" d="M7.8,23.4l2.7-1.3l4.2-6.3l1.3-0.5l1.4,6.4L15.6,22l-1.4-2.6l-1,4.1h4.5l4.7,1.2l1.9-1.2l3.2,3.3l1.4-6.1
		l2.2,2.3l1.4-1.9l2.2-0.6l3.3-3.1l0.5-1.5l2.7,0.4l1.1,1.5l-2,4.2l4.9-2.5v-1.2l1.9-0.4l2.1,2.1l2.1-2.5v-1.7l3.3-2.4l1.4-2h2.1
		l3.8-7.8l3-3.6l1.2,1.9l-1.9,2.4l0.7,1.6l1.8,0.3l1.5,6.5v5.4l2.6,3.6l1.3,5l-4.5-2.9l-2-8.3l-1.2,0.3l-0.2,5.6L61,26.7l-1,8.1
		l2.2,0.5l0.9-1.1l2.1,2.4l1.6,7.3l-0.2,4.7h-2.1L64,42.1l-1.5,2l-3.2-0.7l-2.6-2.2l-2.9,1l0.2,4.7l-2.3,0.6l-3.4,2.6l-4.1-0.5
		l-1.6-1L40,49.1l0.9,1l-2.1,1.2l-1.6-0.8L34.1,52l-4.7-2.4l-1.8-4.2L26,45.6l-1.8-1.5L24.1,43l-5.7-0.6l-0.9,3.1l-3.6-1.7l-1.8-3.1
		H8.2l-0.4,4.9l-2.2,0.7l-1.1,4.4l-0.9-0.8L0,40.7l4.3-2.1l-0.7-4.1l-0.7-4.2l1.9-2.7L4.2,26l2.6-2.8L7.8,23.4z M64.7,33.7l3.9,5.9
		l1.3-0.5l-1.6-2.4l-3.6-3.8C64.7,32.9,64.7,33.7,64.7,33.7z M24.5,21.6v-1.7l3-2.2l2.6-1.3h-3L24.4,18l-1.6,1.5v2.2h1.7V21.6z"/>
	<g>
		<path class="st0" d="M90.5,41V23.5h7.5c1.3,0,2.4,0.2,3.4,0.7s1.7,1.2,2.3,2c0.5,0.9,0.8,1.9,0.8,3.2c0,1.2-0.3,2.3-0.8,3.2
			c-0.6,0.9-1.3,1.5-2.3,1.9s-2.2,0.7-3.5,0.7h-4.5v-3.7h3.5c0.6,0,1-0.1,1.4-0.2c0.4-0.1,0.7-0.4,0.9-0.7c0.2-0.3,0.3-0.7,0.3-1.2
			c0-0.5-0.1-0.9-0.3-1.2c-0.2-0.3-0.5-0.5-0.9-0.7c-0.4-0.2-0.9-0.2-1.4-0.2h-1.7V41H90.5z M100.8,32.9l4.4,8H100l-4.3-8H100.8z"/>
		<path class="st0" d="M115.1,35.2v-7.4h4.7V41h-4.5v-2.5h-0.1c-0.3,0.8-0.8,1.5-1.5,2c-0.7,0.5-1.6,0.7-2.5,0.7
			c-0.9,0-1.7-0.2-2.4-0.6c-0.7-0.4-1.2-1-1.6-1.7c-0.4-0.7-0.6-1.6-0.6-2.5v-8.4h4.7v7.4c0,0.6,0.2,1.2,0.5,1.5
			c0.3,0.4,0.8,0.6,1.4,0.6c0.4,0,0.7-0.1,1-0.3c0.3-0.2,0.5-0.4,0.7-0.7S115.1,35.7,115.1,35.2z"/>
		<path class="st0" d="M134.2,32.1h-4.3c0-0.3-0.1-0.5-0.3-0.7c-0.2-0.2-0.4-0.3-0.6-0.4c-0.3-0.1-0.5-0.2-0.9-0.2
			c-0.4,0-0.8,0.1-1,0.2c-0.3,0.1-0.4,0.4-0.4,0.6c0,0.2,0.1,0.4,0.3,0.5c0.2,0.2,0.5,0.3,1,0.4l2.7,0.5c1.3,0.2,2.3,0.7,3,1.2
			c0.7,0.6,1,1.3,1,2.3c0,0.9-0.3,1.7-0.8,2.4c-0.5,0.7-1.3,1.2-2.2,1.6s-2,0.6-3.2,0.6c-2,0-3.6-0.4-4.7-1.2
			c-1.1-0.8-1.8-1.9-1.9-3.2h4.7c0.1,0.4,0.3,0.7,0.6,1c0.3,0.2,0.8,0.3,1.3,0.3c0.4,0,0.8-0.1,1.1-0.2s0.4-0.4,0.4-0.6
			c0-0.2-0.1-0.4-0.4-0.6c-0.2-0.1-0.6-0.3-1.1-0.4l-2.3-0.4c-1.3-0.2-2.3-0.7-3-1.3s-1-1.5-1-2.5c0-0.9,0.2-1.7,0.7-2.3
			c0.5-0.6,1.2-1.1,2.1-1.4s2-0.5,3.2-0.5c1.9,0,3.4,0.4,4.5,1.2S134.1,30.7,134.2,32.1z"/>
		<path class="st0" d="M148.3,32.1H144c0-0.3-0.1-0.5-0.3-0.7c-0.2-0.2-0.4-0.3-0.6-0.4c-0.3-0.1-0.5-0.2-0.9-0.2
			c-0.4,0-0.8,0.1-1,0.2c-0.3,0.1-0.4,0.4-0.4,0.6c0,0.2,0.1,0.4,0.3,0.5c0.2,0.2,0.5,0.3,1,0.4l2.7,0.5c1.3,0.2,2.3,0.7,3,1.2
			c0.7,0.6,1,1.3,1,2.3c0,0.9-0.3,1.7-0.8,2.4c-0.5,0.7-1.3,1.2-2.2,1.6s-2,0.6-3.2,0.6c-2,0-3.6-0.4-4.7-1.2
			c-1.1-0.8-1.8-1.9-1.9-3.2h4.7c0.1,0.4,0.3,0.7,0.6,1c0.3,0.2,0.8,0.3,1.3,0.3c0.4,0,0.8-0.1,1.1-0.2s0.4-0.4,0.4-0.6
			c0-0.2-0.1-0.4-0.4-0.6c-0.2-0.1-0.6-0.3-1.1-0.4l-2.3-0.4c-1.3-0.2-2.3-0.7-3-1.3s-1-1.5-1-2.5c0-0.9,0.2-1.7,0.7-2.3
			c0.5-0.6,1.2-1.1,2.1-1.4s2-0.5,3.2-0.5c1.9,0,3.4,0.4,4.5,1.2S148.2,30.7,148.3,32.1z"/>
		<path class="st0" d="M150.4,41V27.9h4.7V41H150.4z M152.8,26.5c-0.6,0-1.2-0.2-1.6-0.6c-0.5-0.4-0.7-0.9-0.7-1.5s0.2-1.1,0.7-1.5
			c0.5-0.4,1-0.6,1.6-0.6c0.6,0,1.2,0.2,1.6,0.6c0.5,0.4,0.7,0.9,0.7,1.5s-0.2,1.1-0.7,1.5C154,26.3,153.4,26.5,152.8,26.5z"/>
		<path class="st0" d="M161.2,41.2c-0.8,0-1.6-0.1-2.2-0.4c-0.6-0.3-1.1-0.7-1.5-1.3s-0.5-1.3-0.5-2.1c0-0.7,0.1-1.3,0.4-1.8
			c0.2-0.5,0.6-0.9,1-1.2c0.4-0.3,0.9-0.6,1.5-0.7c0.6-0.2,1.2-0.3,1.9-0.3c0.7-0.1,1.3-0.1,1.8-0.2c0.4-0.1,0.8-0.2,1-0.3
			s0.3-0.4,0.3-0.6v0c0-0.3-0.1-0.6-0.4-0.8s-0.6-0.3-1-0.3c-0.4,0-0.8,0.1-1.1,0.3s-0.5,0.5-0.5,0.9h-4.3c0.1-0.8,0.3-1.5,0.8-2.2
			c0.5-0.7,1.1-1.2,2-1.6s2-0.6,3.3-0.6c0.9,0,1.8,0.1,2.5,0.3s1.4,0.5,1.9,0.9c0.5,0.4,0.9,0.8,1.2,1.4c0.3,0.5,0.4,1.1,0.4,1.7v9
			h-4.4v-1.8H165c-0.3,0.5-0.6,0.9-1,1.2s-0.8,0.5-1.3,0.7C162.3,41.1,161.7,41.2,161.2,41.2z M162.7,38.2c0.4,0,0.7-0.1,1-0.2
			c0.3-0.1,0.6-0.4,0.8-0.6s0.3-0.6,0.3-1v-1.1c-0.1,0.1-0.3,0.1-0.4,0.1c-0.1,0-0.3,0.1-0.4,0.1c-0.2,0-0.3,0.1-0.5,0.1
			c-0.2,0-0.4,0.1-0.5,0.1c-0.4,0.1-0.7,0.1-0.9,0.3c-0.2,0.1-0.4,0.3-0.5,0.5c-0.1,0.2-0.2,0.4-0.2,0.6c0,0.4,0.1,0.6,0.4,0.8
			C162,38.1,162.3,38.2,162.7,38.2z"/>
	</g>
</g>
</svg>
